<svg xmlns="http://www.w3.org/2000/svg" xmlns:xlink="http://www.w3.org/1999/xlink" version="1.1" x="0px" y="0px" viewBox="0 0 60 75" enable-background="new 0 0 60 60" xml:space="preserve"><path d="M58.2792969,35.6826172l-3.9482422-7.3852539l1.5380859-8.4799805l-7.9951172-3.8476563L46.2919922,7.765625h-8.4570313  l-7.2431641-5.5131836l-6.4150391,4.581543h-9.5371094l-1.4492188,7.9970703l-8.8339844,2.8793945l2.1386719,8.9414063  l-4.7744141,7.1352539l6.2607422,5.5327148l0.4912109,10.1787109l7.9433594,0.6323242l5.6171875,7.105957l7.9238281-3.1235352  l7.8037109,3.6342773l4.3564453-5.8222656l9.6542969-1.5791016l-0.1103516-8.4916992L58.2792969,35.6826172z M25.8515625,43.8349609  L12.4257813,32.9897461l4.6855469-5.8012695l7.7470703,6.2573242L38.9960938,16.690918l5.7011719,4.8095703L25.8515625,43.8349609z"/><text x="0" y="75" fill="#000000" font-size="5px" font-weight="bold" font-family="'Helvetica Neue', Helvetica, Arial-Unicode, Arial, Sans-serif">Created by yogi rista</text><text x="0" y="80" fill="#000000" font-size="5px" font-weight="bold" font-family="'Helvetica Neue', Helvetica, Arial-Unicode, Arial, Sans-serif">from the Noun Project</text></svg>