<svg xmlns="http://www.w3.org/2000/svg" version="1.1" viewBox="-5.0 -10.0 110.0 135.0">
 <g>
  <path d="m62.887 36.184c-0.32812-0.28516-0.40625-0.36328-0.83594-0.36328-0.66406 0-1.9688 0.26172-4.6055 1.3633-5.2266 2.1797-14.918 7.3047-24.723 12.488l-0.03125 0.015625c-1.8867 0.94531-3.1953 1.6445-3.6992 2.3281-0.28516 0.39062-0.26563 0.82422 0.12109 1.2422 0.5 0.54297 1.4922 0.94141 3.0273 1.4961l-0.019531-0.007812 8.2578 2.8555-1.5312 0.33594 5.8203-5.5938 4.6836-4.4961 3.8711-3.7148 2.8633-2.75 0.80469-0.77344 0.72656-0.69922c0.60156-0.57422 1.5508-0.55469 2.125 0.042969 0.57422 0.60156 0.55859 1.5508-0.042969 2.125l-0.72656 0.69922-0.80469 0.77344-2.8633 2.75-3.8711 3.7148-4.6836 4.4961-5.8203 5.5938c-0.41016 0.39062-1 0.51953-1.5352 0.33594l-8.2539-2.8516-0.023437-0.007813c-1.2812-0.46484-3.1094-1.0859-4.2148-2.2852-1.2188-1.3203-1.5898-3.3477-0.33203-5.0586 1.0352-1.4141 3.1953-2.4492 4.7773-3.2383l-0.03125 0.015625c9.7344-5.1484 19.586-10.359 24.973-12.605 2.6875-1.125 4.4609-1.5977 5.7617-1.5977 1.5195 0 2.2891 0.65234 2.8047 1.0977 0.62891 0.54297 0.69531 1.4922 0.15234 2.1211-0.54297 0.62891-1.4922 0.69531-2.1211 0.15234z"/>
  <path d="m62.633 35.973c0.33984 0.27344 0.43359 0.33203 0.51172 0.75781 0.12109 0.65234 0.10156 1.9844-0.5 4.7734-1.1914 5.5391-4.4609 16.004-7.7695 26.59l-0.007812 0.03125c-0.58594 2.0312-1.0352 3.4453-1.6172 4.0625-0.32812 0.35156-0.75781 0.41406-1.2422 0.10938-0.62109-0.39062-1.1953-1.2969-2.0234-2.707l0.011719 0.019531-4.3125-7.5977-0.050782 1.5664 4.4336-6.7422 3.5703-5.4297 2.9453-4.4805 2.1797-3.3164 0.61719-0.93359 0.55078-0.83984c0.45703-0.69531 0.26562-1.6289-0.42969-2.082-0.69141-0.45703-1.625-0.26562-2.082 0.42969l-0.55078 0.83984-0.61719 0.9375-2.1797 3.3164-2.9453 4.4805-3.5703 5.4258-4.4336 6.7422c-0.30859 0.47266-0.33203 1.0781-0.050782 1.5703l4.3125 7.5977 0.007813 0.019531c0.69141 1.1758 1.6367 2.8594 3.0156 3.7266 1.5234 0.95703 3.582 0.95312 5.0352-0.59375 1.1992-1.2773 1.8242-3.5898 2.3125-5.2891l-0.007812 0.03125c3.2812-10.508 6.6094-21.145 7.8359-26.852 0.61328-2.8477 0.75781-4.6758 0.51953-5.9531-0.27734-1.4961-1.0586-2.1328-1.5898-2.5586-0.64844-0.51953-1.5938-0.41406-2.1133 0.23438-0.51953 0.64844-0.41406 1.5938 0.23437 2.1133z"/>
 </g>
<text x="0.0" y="117.5" font-size="5.0" font-weight="bold" font-family="Arbeit Regular, Helvetica, Arial-Unicode, Arial, Sans-serif" fill="#000000">Created by Dian Chandra Lesmono</text><text x="0.0" y="122.5" font-size="5.0" font-weight="bold" font-family="Arbeit Regular, Helvetica, Arial-Unicode, Arial, Sans-serif" fill="#000000">from Noun Project</text></svg>